<?xml version="1.0" encoding="utf-8"?>
<!-- Generator: Adobe Illustrator 25.2.1, SVG Export Plug-In . SVG Version: 6.00 Build 0)  -->
<svg version="1.1" id="Warstwa_3" xmlns="http://www.w3.org/2000/svg" x="0px"
     y="0px"
     viewBox="0 0 500 500" style="enable-background:new 0 0 500 500;" xml:space="preserve">
<style type="text/css">
	.st0{fill:none;stroke:#F5D874;stroke-width:30;stroke-miterlimit:10;}
	.st1{fill:none;stroke:#F5D874;stroke-width:41;stroke-miterlimit:10;}
	.st2{fill:none;}
</style>
    <path class="st0" d="M227.5,226.9C116.8,127.5,239.9,28,250.7,28c10.8,0,132,101.1,22.5,198.9"/>
    <path class="st0" d="M280.9,231.8c55.6-138,191.1-56.3,194.8-46.2c3.7,10.1-49.8,158.7-179.2,89.1"/>
    <path class="st0" d="M204.2,274.4c-131.3,70-182.6-79.7-178.9-89.8s140.2-89.5,194.6,46.9"/>
    <path class="st0" d="M248,313.9c20.9,147.3-137.4,144.4-145.6,137.4C94.1,444.4,66.2,289,213,284.5"/>
    <path class="st0" d="M288,285c148.7,5,118.3,160.3,110.1,167.2c-8.2,6.9-166.1,7.4-145.1-137.9"/>
    <path class="st1" d="M252.2,178.8l19.6,39.8c1,2,2.9,3.4,5.1,3.7l43.9,6.4c5.6,0.8,7.8,7.7,3.8,11.6l-31.8,31c-1.6,1.6-2.3,3.8-2,6
	l7.5,43.7c0.9,5.5-4.9,9.8-9.9,7.2l-39.3-20.7c-2-1-4.3-1-6.3,0l-39.3,20.7c-5,2.6-10.8-1.6-9.9-7.2l7.5-43.7c0.4-2.2-0.4-4.4-2-6
	l-31.8-31c-4-3.9-1.8-10.8,3.8-11.6l43.9-6.4c2.2-0.3,4.1-1.7,5.1-3.7l19.6-39.8C242.5,173.8,249.7,173.8,252.2,178.8z"/>
    <rect x="12.4" y="483" class="st2" width="475.2" height="216.6"/>
</svg>
